# xmcd
#
# Track frame offsets:
# 150
# 19166
# 33264
# 50523
# 69973
# 85880
# 106838
# 126553
# 143888
# 166066
# 181500
# 193521
# 210164
# 228493
# 246047
# 263730
#
# Disc length: 3727 seconds
#
# Revision: 0
# Processed by: cddbd v1.5.1PL0 Copyright (c) Steve Scherf et al.
# Submitted via: Axialis_AX_CDPlayer 2.6
#
DISCID=cb0e8d10
DTITLE=The Key Sessions Quartet - The Piano Sessions CD2
DYEAR=1900
DGENRE=
TTITLE0=I Get A Kick Out Of You (Jamie Cullum)
TTITLE1=Don't Know Why (Norah Jones)
TTITLE2=Come Fly With Me (Michael Buble)
TTITLE3=Closest Thing To Crazy (Katie Melua)
TTITLE4=Leave Right Now (Will Young)
TTITLE5=Fields Of Gold (Sting)
TTITLE6=Clocks (Coldplay)
TTITLE7=I Wish I Knew How It Would Feel To Be Free (Billy Taylor)
TTITLE8=Moondance (Van Morrison)
TTITLE9=Fever (Peggy Lee)
TTITLE10=Ain't No Sunshine (Bill Withers)
TTITLE11=Mad World (Michael Andres, Gary Jules)
TTITLE12=Easy (The Commodores)
TTITLE13=If You're Not The One (Daniel Bedingfield)
TTITLE14=Beautiful (Christina Aguilera)
TTITLE15=Thank You (Dido)
EXTD=
EXTT0=
EXTT1=
EXTT2=
EXTT3=
EXTT4=
EXTT5=
EXTT6=
EXTT7=
EXTT8=
EXTT9=
EXTT10=
EXTT11=
EXTT12=
EXTT13=
EXTT14=
EXTT15=
PLAYORDER=
